<?xml version="1.0" encoding="UTF-8" standalone="no"?>
<!DOCTYPE svg PUBLIC "-//W3C//DTD SVG 1.1//EN" "http://www.w3.org/Graphics/SVG/1.1/DTD/svg11.dtd">
<svg width="100%" height="100%" viewBox="0 0 447 126" version="1.1" xmlns="http://www.w3.org/2000/svg" xmlns:xlink="http://www.w3.org/1999/xlink" xml:space="preserve" xmlns:serif="http://www.serif.com/" style="fill-rule:evenodd;clip-rule:evenodd;stroke-linejoin:round;stroke-miterlimit:2;">
    <g id="Layer-1" serif:id="Layer 1" transform="matrix(2.834646,0,0,2.834646,-175.914105,-256.381642)">
        <g id="g886" transform="matrix(0.399727,0,0,0.34818,61.931647,90.445746)">
            <path id="path839" d="M115.822,0L2.943,0C2.246,0 1.579,0.297 1.086,0.826C0.594,1.355 0.318,2.072 0.318,2.82L0.318,124.079C0.318,124.827 0.594,125.545 1.086,126.074C1.579,126.602 2.246,126.899 2.943,126.899L115.822,126.899C116.519,126.899 117.186,126.602 117.679,126.074C118.171,125.545 118.448,124.827 118.448,124.079L118.448,2.82C118.448,2.072 118.171,1.355 117.679,0.826C117.186,0.297 116.519,0 115.822,0ZM79.071,81.78C79.071,82.528 78.794,83.245 78.302,83.774C77.81,84.303 77.142,84.6 76.446,84.6L42.319,84.6C41.623,84.6 40.955,84.303 40.463,83.774C39.971,83.245 39.694,82.528 39.694,81.78L39.694,45.12C39.694,44.372 39.971,43.655 40.463,43.126C40.955,42.597 41.623,42.3 42.319,42.3L76.446,42.3C77.142,42.3 77.81,42.597 78.302,43.126C78.794,43.655 79.071,44.372 79.071,45.12L79.071,81.78Z" style="fill:white;fill-rule:nonzero;"/>
            <path id="path841" d="M352.131,42.305L318.004,42.305C316.555,42.305 315.379,43.568 315.379,45.125L315.379,81.785C315.379,83.342 316.555,84.605 318.004,84.605L352.131,84.605C353.581,84.605 354.756,83.342 354.756,81.785L354.756,45.125C354.756,43.568 353.581,42.305 352.131,42.305Z" style="fill:white;fill-rule:nonzero;"/>
            <path id="path843" d="M312.763,0.002L278.637,0.002C277.187,0.002 276.012,1.265 276.012,2.822L276.012,39.482C276.012,41.039 277.187,42.302 278.637,42.302L312.763,42.302C314.213,42.302 315.389,41.039 315.389,39.482L315.389,2.822C315.389,1.265 314.213,0.002 312.763,0.002Z" style="fill:white;fill-rule:nonzero;"/>
            <path id="path845" d="M391.529,0.002L357.402,0.002C355.953,0.002 354.777,1.265 354.777,2.822L354.777,39.482C354.777,41.039 355.953,42.302 357.402,42.302L391.529,42.302C392.979,42.302 394.154,41.039 394.154,39.482L394.154,2.822C394.154,1.265 392.979,0.002 391.529,0.002Z" style="fill:white;fill-rule:nonzero;"/>
            <path id="path847" d="M312.763,84.604L278.637,84.604C277.187,84.604 276.012,85.866 276.012,87.424L276.012,124.084C276.012,125.641 277.187,126.904 278.637,126.904L312.763,126.904C314.213,126.904 315.389,125.641 315.389,124.084L315.389,87.424C315.389,85.866 314.213,84.604 312.763,84.604Z" style="fill:white;fill-rule:nonzero;"/>
            <path id="path849" d="M391.529,84.604L357.402,84.604C355.953,84.604 354.777,85.866 354.777,87.424L354.777,124.084C354.777,125.641 355.953,126.904 357.402,126.904L391.529,126.904C392.979,126.904 394.154,125.641 394.154,124.084L394.154,87.424C394.154,85.866 392.979,84.604 391.529,84.604Z" style="fill:white;fill-rule:nonzero;"/>
            <path id="path851" d="M253.651,0.002L219.525,0.002C218.075,0.002 216.899,1.265 216.899,2.822L216.899,39.482C216.899,41.039 218.075,42.302 219.525,42.302L253.651,42.302C255.101,42.302 256.276,41.039 256.276,39.482L256.276,2.822C256.276,1.265 255.101,0.002 253.651,0.002Z" style="fill:white;fill-rule:nonzero;"/>
            <path id="path853" d="M253.651,84.604L219.525,84.604C218.075,84.604 216.899,85.866 216.899,87.424L216.899,124.084C216.899,125.641 218.075,126.904 219.525,126.904L253.651,126.904C255.101,126.904 256.276,125.641 256.276,124.084L256.276,87.424C256.276,85.866 255.101,84.604 253.651,84.604Z" style="fill:white;fill-rule:nonzero;"/>
            <path id="path855" d="M216.888,45.088C216.888,44.34 216.611,43.623 216.119,43.094C215.627,42.565 214.959,42.268 214.263,42.268L177.511,42.268L177.511,2.82C177.511,2.072 177.234,1.355 176.742,0.826C176.25,0.297 175.582,0 174.886,0L140.76,0C140.063,0 139.396,0.297 138.903,0.826C138.411,1.355 138.134,2.072 138.134,2.82L138.134,124.016C138.134,124.764 138.411,125.481 138.903,126.01C139.396,126.539 140.063,126.836 140.76,126.836L174.886,126.836C175.582,126.836 176.25,126.539 176.742,126.01C177.234,125.481 177.511,124.764 177.511,124.016L177.511,84.568L214.263,84.568C214.959,84.568 215.627,84.271 216.119,83.742C216.611,83.213 216.888,82.496 216.888,81.748L216.888,45.088Z" style="fill:white;fill-rule:nonzero;"/>
        </g>
    </g>
</svg>
